<mxfile host="app.diagrams.net" agent="Mozilla/5.0 (Windows NT 10.0; Win64; x64) AppleWebKit/537.36 (KHTML, like Gecko) Chrome/130.0.0.0 Safari/537.36" version="24.7.16">
  <diagram name="Page-1" id="O4QpBq0s-QUGAf6Hi9pV">
    <mxGraphModel dx="1434" dy="738" grid="1" gridSize="10" guides="1" tooltips="1" connect="1" arrows="1" fold="1" page="1" pageScale="1" pageWidth="850" pageHeight="1100" math="0" shadow="0">
      <root>
        <mxCell id="0" />
        <mxCell id="1" parent="0" />
        <mxCell id="EX7HJN2xVCYqK3CvbIh4-1" value="" style="whiteSpace=wrap;html=1;aspect=fixed;" vertex="1" parent="1">
          <mxGeometry x="80" y="80" width="720" height="720" as="geometry" />
        </mxCell>
        <mxCell id="EX7HJN2xVCYqK3CvbIh4-2" value="" style="rounded=0;whiteSpace=wrap;html=1;" vertex="1" parent="1">
          <mxGeometry x="80" y="80" width="720" height="40" as="geometry" />
        </mxCell>
        <mxCell id="EX7HJN2xVCYqK3CvbIh4-3" value="" style="rounded=0;whiteSpace=wrap;html=1;" vertex="1" parent="1">
          <mxGeometry x="80" y="740" width="720" height="60" as="geometry" />
        </mxCell>
        <mxCell id="EX7HJN2xVCYqK3CvbIh4-4" value="&lt;h1 style=&quot;margin-top: 0px; font-size: 48px;&quot;&gt;GIPHY SEARCH&lt;/h1&gt;" style="text;html=1;whiteSpace=wrap;overflow=hidden;rounded=0;" vertex="1" parent="1">
          <mxGeometry x="240" y="120" width="370" height="60" as="geometry" />
        </mxCell>
        <mxCell id="EX7HJN2xVCYqK3CvbIh4-5" value="" style="rounded=0;whiteSpace=wrap;html=1;" vertex="1" parent="1">
          <mxGeometry x="245" y="180" width="215" height="40" as="geometry" />
        </mxCell>
        <mxCell id="EX7HJN2xVCYqK3CvbIh4-7" value="Search for GIF..." style="text;html=1;align=center;verticalAlign=middle;whiteSpace=wrap;rounded=0;" vertex="1" parent="1">
          <mxGeometry x="255" y="185" width="195" height="30" as="geometry" />
        </mxCell>
        <mxCell id="EX7HJN2xVCYqK3CvbIh4-9" value="" style="rounded=0;whiteSpace=wrap;html=1;" vertex="1" parent="1">
          <mxGeometry x="480" y="180" width="120" height="40" as="geometry" />
        </mxCell>
        <mxCell id="EX7HJN2xVCYqK3CvbIh4-10" value="SEARCH BUTTON" style="text;html=1;align=center;verticalAlign=middle;whiteSpace=wrap;rounded=0;" vertex="1" parent="1">
          <mxGeometry x="510" y="185" width="60" height="30" as="geometry" />
        </mxCell>
        <mxCell id="EX7HJN2xVCYqK3CvbIh4-13" value="" style="whiteSpace=wrap;html=1;aspect=fixed;" vertex="1" parent="1">
          <mxGeometry x="125" y="250" width="130" height="130" as="geometry" />
        </mxCell>
        <mxCell id="EX7HJN2xVCYqK3CvbIh4-14" value="" style="whiteSpace=wrap;html=1;aspect=fixed;" vertex="1" parent="1">
          <mxGeometry x="280" y="250" width="130" height="130" as="geometry" />
        </mxCell>
        <mxCell id="EX7HJN2xVCYqK3CvbIh4-15" value="" style="whiteSpace=wrap;html=1;aspect=fixed;" vertex="1" parent="1">
          <mxGeometry x="440" y="250" width="130" height="130" as="geometry" />
        </mxCell>
        <mxCell id="EX7HJN2xVCYqK3CvbIh4-16" value="" style="whiteSpace=wrap;html=1;aspect=fixed;" vertex="1" parent="1">
          <mxGeometry x="590" y="250" width="130" height="130" as="geometry" />
        </mxCell>
        <mxCell id="EX7HJN2xVCYqK3CvbIh4-17" value="" style="whiteSpace=wrap;html=1;aspect=fixed;" vertex="1" parent="1">
          <mxGeometry x="125" y="400" width="130" height="130" as="geometry" />
        </mxCell>
        <mxCell id="EX7HJN2xVCYqK3CvbIh4-18" value="" style="whiteSpace=wrap;html=1;aspect=fixed;" vertex="1" parent="1">
          <mxGeometry x="280" y="400" width="130" height="130" as="geometry" />
        </mxCell>
        <mxCell id="EX7HJN2xVCYqK3CvbIh4-19" value="" style="whiteSpace=wrap;html=1;aspect=fixed;" vertex="1" parent="1">
          <mxGeometry x="440" y="400" width="130" height="130" as="geometry" />
        </mxCell>
        <mxCell id="EX7HJN2xVCYqK3CvbIh4-20" value="" style="whiteSpace=wrap;html=1;aspect=fixed;" vertex="1" parent="1">
          <mxGeometry x="590" y="400" width="130" height="130" as="geometry" />
        </mxCell>
        <mxCell id="EX7HJN2xVCYqK3CvbIh4-21" value="" style="whiteSpace=wrap;html=1;aspect=fixed;" vertex="1" parent="1">
          <mxGeometry x="125" y="550" width="130" height="130" as="geometry" />
        </mxCell>
        <mxCell id="EX7HJN2xVCYqK3CvbIh4-22" value="" style="whiteSpace=wrap;html=1;aspect=fixed;" vertex="1" parent="1">
          <mxGeometry x="280" y="550" width="130" height="130" as="geometry" />
        </mxCell>
        <mxCell id="EX7HJN2xVCYqK3CvbIh4-23" value="" style="whiteSpace=wrap;html=1;aspect=fixed;" vertex="1" parent="1">
          <mxGeometry x="440" y="550" width="130" height="130" as="geometry" />
        </mxCell>
        <mxCell id="EX7HJN2xVCYqK3CvbIh4-24" value="" style="whiteSpace=wrap;html=1;aspect=fixed;" vertex="1" parent="1">
          <mxGeometry x="590" y="550" width="130" height="130" as="geometry" />
        </mxCell>
        <mxCell id="EX7HJN2xVCYqK3CvbIh4-25" value="GIF results displayed" style="text;html=1;align=center;verticalAlign=middle;whiteSpace=wrap;rounded=0;" vertex="1" parent="1">
          <mxGeometry x="105" y="270" width="170" height="90" as="geometry" />
        </mxCell>
        <mxCell id="EX7HJN2xVCYqK3CvbIh4-26" value="GIF results displayed" style="text;html=1;align=center;verticalAlign=middle;whiteSpace=wrap;rounded=0;" vertex="1" parent="1">
          <mxGeometry x="260" y="270" width="170" height="90" as="geometry" />
        </mxCell>
        <mxCell id="EX7HJN2xVCYqK3CvbIh4-27" value="GIF results displayed" style="text;html=1;align=center;verticalAlign=middle;whiteSpace=wrap;rounded=0;" vertex="1" parent="1">
          <mxGeometry x="420" y="270" width="170" height="90" as="geometry" />
        </mxCell>
        <mxCell id="EX7HJN2xVCYqK3CvbIh4-28" value="GIF results displayed" style="text;html=1;align=center;verticalAlign=middle;whiteSpace=wrap;rounded=0;" vertex="1" parent="1">
          <mxGeometry x="570" y="270" width="170" height="90" as="geometry" />
        </mxCell>
        <mxCell id="EX7HJN2xVCYqK3CvbIh4-29" value="GIF results displayed" style="text;html=1;align=center;verticalAlign=middle;whiteSpace=wrap;rounded=0;" vertex="1" parent="1">
          <mxGeometry x="105" y="420" width="170" height="90" as="geometry" />
        </mxCell>
        <mxCell id="EX7HJN2xVCYqK3CvbIh4-30" value="GIF results displayed" style="text;html=1;align=center;verticalAlign=middle;whiteSpace=wrap;rounded=0;" vertex="1" parent="1">
          <mxGeometry x="260" y="420" width="170" height="90" as="geometry" />
        </mxCell>
        <mxCell id="EX7HJN2xVCYqK3CvbIh4-31" value="GIF results displayed" style="text;html=1;align=center;verticalAlign=middle;whiteSpace=wrap;rounded=0;" vertex="1" parent="1">
          <mxGeometry x="420" y="420" width="170" height="90" as="geometry" />
        </mxCell>
        <mxCell id="EX7HJN2xVCYqK3CvbIh4-32" value="GIF results displayed" style="text;html=1;align=center;verticalAlign=middle;whiteSpace=wrap;rounded=0;" vertex="1" parent="1">
          <mxGeometry x="570" y="420" width="170" height="90" as="geometry" />
        </mxCell>
        <mxCell id="EX7HJN2xVCYqK3CvbIh4-33" value="GIF results displayed" style="text;html=1;align=center;verticalAlign=middle;whiteSpace=wrap;rounded=0;" vertex="1" parent="1">
          <mxGeometry x="108" y="570" width="170" height="90" as="geometry" />
        </mxCell>
        <mxCell id="EX7HJN2xVCYqK3CvbIh4-34" value="GIF results displayed" style="text;html=1;align=center;verticalAlign=middle;whiteSpace=wrap;rounded=0;" vertex="1" parent="1">
          <mxGeometry x="263" y="570" width="170" height="90" as="geometry" />
        </mxCell>
        <mxCell id="EX7HJN2xVCYqK3CvbIh4-35" value="GIF results displayed" style="text;html=1;align=center;verticalAlign=middle;whiteSpace=wrap;rounded=0;" vertex="1" parent="1">
          <mxGeometry x="423" y="570" width="170" height="90" as="geometry" />
        </mxCell>
        <mxCell id="EX7HJN2xVCYqK3CvbIh4-36" value="GIF results displayed" style="text;html=1;align=center;verticalAlign=middle;whiteSpace=wrap;rounded=0;" vertex="1" parent="1">
          <mxGeometry x="573" y="570" width="170" height="90" as="geometry" />
        </mxCell>
        <mxCell id="EX7HJN2xVCYqK3CvbIh4-37" value="Website Logo" style="text;html=1;align=center;verticalAlign=middle;whiteSpace=wrap;rounded=0;fontSize=28;" vertex="1" parent="1">
          <mxGeometry x="105" y="80" width="195" height="40" as="geometry" />
        </mxCell>
      </root>
    </mxGraphModel>
  </diagram>
</mxfile>
